<svg width="165" height="30" viewBox="0 0 165 30" fill="none" xmlns="http://www.w3.org/2000/svg">
<path d="M120.113 3.70005C112.105 4.06316 108.714 0.933481 108.472 0.708697C108.23 0.950772 104.84 4.06316 96.8484 3.70005C96.8484 3.70005 96.5544 13.4003 97.1425 15.8038C97.1425 15.8038 97.6268 21.2678 108.472 27.9075V27.9248C108.472 27.9248 108.472 27.9248 108.49 27.9248H108.507V27.9075C119.318 21.2505 119.837 15.8038 119.837 15.8038C120.407 13.4003 120.113 3.70005 120.113 3.70005Z" fill="black"/>
<path d="M119.526 4.21797C119.526 4.21797 112.52 4.85774 108.473 1.34766C104.425 4.87503 97.4022 4.21797 97.4022 4.21797C97.4022 4.21797 97.1254 7.93555 97.5578 14.6099C97.9557 21.1286 108.04 26.9903 108.49 27.2497C108.94 26.973 119.024 21.1286 119.422 14.6099C119.82 7.91826 119.526 4.21797 119.526 4.21797Z" fill="#FFE400"/>
<path d="M118.297 13.5735C118.297 16.0807 113.886 18.0865 108.42 18.0865C102.954 18.0865 98.5435 16.0807 98.5435 13.5735C98.5435 11.0663 102.954 9.06055 108.42 9.06055C113.886 9.06055 118.297 11.0836 118.297 13.5735Z" fill="#00A7E1"/>
<path d="M98.4746 13.5724C98.5265 10.9787 102.955 8.99023 108.421 8.99023C113.887 8.99023 118.315 10.9787 118.367 13.5724C118.349 16.166 113.904 18.1545 108.421 18.1545C102.955 18.1372 98.5092 16.166 98.4746 13.5724ZM101.45 10.46C99.6681 11.2727 98.5784 12.3966 98.5784 13.5724C98.5784 14.7655 99.6508 15.8721 101.45 16.6848C103.214 17.4974 105.688 18.0162 108.403 18.0162C111.119 18.0162 113.593 17.4974 115.357 16.6848C117.139 15.8721 118.228 14.7482 118.194 13.5724C118.194 12.3966 117.121 11.2727 115.357 10.46C113.575 9.64729 111.119 9.12856 108.403 9.12856C105.688 9.12856 103.249 9.64729 101.45 10.46Z" fill="black"/>
<path d="M108.472 18.0162C110.531 16.9095 111.811 15.3188 111.811 13.5551C111.811 11.7914 110.531 10.2525 108.472 9.14585L108.524 8.99023C110.582 10.0969 111.932 11.7049 111.932 13.5551C111.932 15.4052 110.6 17.0306 108.524 18.1545L108.472 18.0162Z" fill="black"/>
<path d="M108.472 18.0853C105.134 17.2727 102.833 15.5781 102.816 13.5205C102.833 11.4801 105.116 9.80291 108.403 8.99023L108.42 9.09398V9.04211H108.576V18.1026L108.472 18.0853ZM102.954 13.5551C102.954 15.4398 105.168 17.1343 108.42 17.947V9.16315C105.151 9.97583 102.92 11.6703 102.954 13.5551Z" fill="black"/>
<path d="M100.844 13.5551C100.862 11.3072 104.096 9.50897 108.421 8.99023L108.438 9.14585C104.148 9.63 100.983 11.4801 100.983 13.5551C100.965 15.63 104.113 17.4801 108.403 17.9643L108.386 18.1199C104.096 17.5839 100.862 15.8029 100.844 13.5551Z" fill="black"/>
<path d="M108.645 17.93C111.949 17.1519 114.215 15.4228 114.215 13.5208C114.215 11.6361 111.983 9.94153 108.732 9.16343L108.749 9.00781C112.035 9.82049 114.336 11.515 114.336 13.5381C114.336 15.5611 112.001 17.2902 108.68 18.1029L108.645 17.93Z" fill="black"/>
<path d="M108.732 17.9643C113.022 17.4801 116.187 15.63 116.153 13.5551C116.17 11.4801 113.022 9.63 108.732 9.14585L108.749 8.99023C113.039 9.50897 116.256 11.2899 116.274 13.5551C116.256 15.8029 113.039 17.6012 108.732 18.1199V17.9643Z" fill="black"/>
<path d="M102.366 17.2047C102.314 17.2047 102.297 17.1874 102.297 17.1356C102.297 17.0837 102.314 17.0664 102.366 17.0664H114.474C114.492 17.0664 114.543 17.0837 114.543 17.1356C114.543 17.1874 114.526 17.2047 114.474 17.2047H102.366Z" fill="black"/>
<path d="M116.723 15.9258H100.1V16.0814H116.723V15.9258Z" fill="black"/>
<path d="M98.9588 14.8532C98.9415 14.8532 98.8896 14.8359 98.8896 14.784C98.8896 14.7321 98.9069 14.7148 98.9588 14.7148H117.899C117.917 14.7148 117.969 14.7321 117.969 14.784C117.969 14.8359 117.951 14.8532 117.899 14.8532H98.9588Z" fill="black"/>
<path d="M102.453 10.0641C102.401 10.0641 102.384 10.0468 102.384 9.99495C102.384 9.94307 102.401 9.92578 102.453 9.92578H114.336C114.354 9.92578 114.405 9.94307 114.405 9.99495C114.405 10.0468 114.388 10.0641 114.336 10.0641H102.453Z" fill="black"/>
<path d="M116.671 11.0488H100.135V11.2044H116.671V11.0488Z" fill="black"/>
<path d="M117.917 12.2578H98.8896V12.4134H117.917V12.2578Z" fill="black"/>
<path d="M118.28 13.4688H98.5435V13.6244H118.28V13.4688Z" fill="black"/>
<path fill-rule="evenodd" clip-rule="evenodd" d="M104.217 14.1447L104.131 14.1966L104.01 14.162L103.888 14.1101L103.802 13.9718L103.612 13.9026L103.508 13.8161L103.318 13.8507L102.972 13.6778L102.903 13.4703L102.591 13.1418L102.781 13.5049L102.747 13.5222L102.678 13.453V13.3839L102.539 13.3147H102.591L102.436 13.0899L102.332 13.038L102.193 12.7614L102.297 12.381L102.384 12.3983V12.3291L102.263 12.2254L102.193 12.087H102.141L102.09 11.9833L101.778 11.7412L101.484 11.6721L101.259 11.7585L101.38 11.6721L101.156 11.7931V11.8104L100.792 11.966L100.948 11.845L100.792 11.8104L100.844 11.7412L100.688 11.7066V11.6375L100.792 11.551H100.948L100.983 11.4646L100.792 11.4991L100.74 11.4127L100.896 11.3435H101.069L100.948 11.3262L100.896 11.2225L101.415 11.0496L102.193 11.2052L102.591 11.0842L103.093 11.1706L103.076 11.2571L103.37 11.2917L103.473 11.2052L103.612 11.2571L103.802 11.2744L103.837 11.2225L103.785 11.1706L103.854 11.1187L103.888 11.2052L103.854 11.2225L103.923 11.2917L104.01 11.2225L103.923 11.0842L104.01 10.9977L104.061 10.8594H104.252L104.183 10.9285H104.079L104.096 10.9631L104.079 10.9977V11.1187L104.183 11.2225L104.217 11.1706L104.269 11.2917L104.39 11.1187L104.563 11.1706L104.494 11.2917L104.304 11.3262L104.2 11.4646L104.061 11.5164L103.854 11.6375L103.837 11.845L104.252 11.9833L104.304 11.966V12.1389L104.442 12.1735L104.425 12.0006L104.598 11.845L104.546 11.7931L104.615 11.5683L104.788 11.551L104.961 11.6375L104.944 11.7585L105.013 11.8104L105.099 11.7585L105.151 11.6893L105.272 11.845V11.9314L105.48 12.0352L105.497 12.1389L105.445 12.26L105.566 12.2772V12.3983H105.48L105.307 12.3464L105.428 12.2081L105.272 12.2254L105.099 12.2081L104.944 12.2254L104.857 12.3464L105.099 12.2945L105.065 12.4502L105.255 12.3983V12.4502L105.013 12.5712L105.082 12.502H104.978L104.719 12.5885V12.6404L104.788 12.6749V12.6231V12.6749V12.6922H104.684L104.598 12.7268L104.442 12.8824L104.477 12.9689L104.321 13.038L104.183 13.1764L104.217 13.4012L104.183 13.453L104.079 13.332L104.061 13.2283L103.733 13.1764L103.785 13.2283H103.543L103.387 13.332L103.37 13.5222L103.421 13.6951H103.629L103.716 13.6087H103.888L103.785 13.8161L104.01 13.8507V14.0236L104.131 14.1101H104.217L104.304 14.162L104.39 14.0409L104.598 13.9718L105.013 14.0409L105.497 14.283L105.618 14.4386L105.549 14.5251L105.653 14.5078L106.327 14.698L106.414 14.819L106.189 15.0438L106.137 15.3723L106.016 15.4934H105.912L105.722 15.6144V15.7009L105.48 16.0294L105.307 15.9775L105.393 16.0813L105.307 16.2023H105.186L105.151 16.2715L105.03 16.3234L105.099 16.3406L105.065 16.4617L104.961 16.4963L105.03 16.6346L104.944 16.7902L105.03 16.9285L105.099 16.9631H105.186L105.065 16.9977H104.944L104.788 16.9285L104.719 16.8594L104.615 16.5481H104.667L104.719 16.3752L104.65 16.3234L104.598 16.1504L104.684 16.0294L104.65 15.2859L104.373 15.113L104.321 15.0265L104.131 14.819L104.096 14.6807L104.131 14.6461V14.5251L104.269 14.3868V14.1966L104.217 14.1447Z" fill="black"/>
<path fill-rule="evenodd" clip-rule="evenodd" d="M104.183 12.6738V12.6219L104.304 12.5873L104.321 12.6219L104.373 12.5873L104.356 12.57L104.373 12.5527H104.494H104.511V12.57L104.494 12.5873H104.373L104.356 12.6219L104.304 12.6392L104.2 12.6738H104.183Z" fill="black"/>
<path fill-rule="evenodd" clip-rule="evenodd" d="M103.957 12.5181L104.009 12.4662L104.027 12.4489H104.13V12.4316L104.182 12.4489H104.217L104.321 12.4662L104.355 12.5008L104.321 12.5181L104.269 12.5008L104.252 12.5181L104.217 12.5873H104.2L104.182 12.6218L104.2 12.57L104.182 12.5527V12.5181L104.13 12.5008L104.096 12.4662L104.061 12.5008L104.027 12.5873V12.6218L103.975 12.6737L103.957 12.6391L103.923 12.5873L104.009 12.5527V12.5181H103.957Z" fill="black"/>
<path fill-rule="evenodd" clip-rule="evenodd" d="M103.923 12.38L103.975 12.3973H104.079L104.13 12.4319L104.182 12.3973L104.13 12.38L104.079 12.3454L104.061 12.3281H104.027H103.923L103.888 12.3454H103.854L103.802 12.3973V12.4319H103.854L103.888 12.38H103.923Z" fill="black"/>
<path fill-rule="evenodd" clip-rule="evenodd" d="M109.683 13.1768L109.891 13.5053L109.943 13.5226L109.96 13.6436L110.323 14.024L110.652 13.9722L110.565 14.2142L110.116 14.6984L110.15 15.0961L109.891 15.3209V15.5111L109.77 15.563L109.528 15.9088L109.13 15.9606L108.905 15.5802L108.766 15.1653L108.853 14.9405L108.645 14.5601L108.593 14.2661H108.438L108.386 14.2142L107.78 14.2834L107.365 13.9376L107.313 13.6091L107.677 13.0557L107.902 12.9347L108.663 12.8655L108.645 12.9866L109.078 13.1595L109.095 13.0903L109.822 13.1076L109.839 12.8828L109.493 12.8655L109.476 12.6926L109.666 12.6235L110.081 12.6408L109.891 12.4678L109.943 12.3468L109.77 12.3987L109.822 12.4506L109.683 12.5024L109.649 12.3814L109.562 12.3987L109.476 12.6753L109.199 12.6926L109.251 12.8137L109.199 12.8828L109.026 12.5889L108.766 12.4333L108.732 12.5024L108.974 12.7272H108.939L108.853 12.7964V12.7272L108.593 12.5197L108.126 12.7445L108.057 12.8655H107.78L107.677 12.7618L107.729 12.5716L108.057 12.5543V12.3987L107.919 12.2949L108.351 12.1566L108.542 12.001L108.49 11.88L108.593 11.8627V11.9837L109.078 11.9664L109.095 11.8454H109.199L109.441 11.6898L109.095 11.6725L109.233 11.3958L109.078 11.3266L108.836 11.9145L108.732 11.9318L108.645 11.707L108.421 11.7935L108.351 11.6206L108.939 11.0846L109.268 10.9981L109.856 11.2229L109.77 11.2921L109.562 11.2748L109.77 11.465L110.029 11.2921L110.012 11.171L110.133 11.2056V11.2575L110.721 11.1537L110.617 11.05L111.067 11.171L111.032 10.8598H111.153V10.9635L111.292 11.171L111.188 11.2921L111.361 11.2575V11.171H111.448L111.482 11.1537L111.309 11.05L111.257 10.8598L111.672 10.9981L111.499 10.8252L112.33 10.5312L112.797 10.6696L112.71 10.7906L113.558 10.8598V10.9289H114.059L114.077 10.8598L114.855 10.9808L115.011 11.0846L115.599 11.0327L116.325 11.2575L116.308 11.3785L115.962 11.2921L115.876 11.3785L116.014 11.465L115.893 11.4995L115.72 11.6206L115.426 11.6379L115.409 11.707L115.478 11.8454L115.426 12.001H115.357L115.288 12.1047L115.149 11.8627V11.7416L115.426 11.4995H115.357L115.236 11.586L115.201 11.5514H115.08L115.011 11.586L115.028 11.6725L114.907 11.6898L114.734 11.6725L114.475 11.6898L114.267 11.9318L114.596 12.0529L114.613 12.2258L114.44 12.5024L114.319 12.5197L114.129 12.7272L114.25 12.7618L114.267 12.8655L114.25 12.9174L114.146 12.9347L114.094 12.7964L114.025 12.6926L113.835 12.6408L113.714 12.7445L113.938 12.7964L113.886 12.9347L114.008 13.1422L113.783 13.4534L113.506 13.5226L113.489 13.6091L113.471 13.5226L113.298 13.6436L113.471 13.7647L113.489 13.903L113.264 14.0413V13.9895L113.074 13.8511L113.022 14.024L113.212 14.2142L113.264 14.3526L113.143 14.2834L112.952 14.0586L112.883 13.7301L112.762 13.7647L112.555 13.4707L112.364 13.5226L112.036 13.7993V13.9722L111.915 14.0586L111.793 13.8511L111.724 13.7647L111.621 13.5226H111.534L111.361 13.3497H110.946L110.859 13.2805L110.825 13.3151L110.496 13.1595L110.704 13.4361L110.859 13.3497L110.946 13.4361L111.067 13.5226L110.773 13.7301L110.704 13.7993L110.306 13.903L110.029 13.4534L109.977 13.4361L109.839 13.1768L109.787 13.2632L109.683 13.1768Z" fill="black"/>
<path fill-rule="evenodd" clip-rule="evenodd" d="M112.555 10.8582L112.589 10.8236L112.624 10.8064L112.676 10.7891V10.8236V10.8582H112.555Z" fill="black"/>
<path fill-rule="evenodd" clip-rule="evenodd" d="M110.617 12.6224L110.6 12.5705H110.565L110.548 12.5532L110.531 12.5186L110.496 12.5013V12.4667H110.531V12.4494L110.617 12.4322V12.3976L110.6 12.3457H110.444L110.358 12.4322L110.323 12.4667V12.5013L110.41 12.5878L110.479 12.6742L110.496 12.6915V12.7261L110.444 12.7607L110.479 12.8471H110.548L110.6 12.8644H110.652H110.721L110.704 12.7434L110.652 12.7261V12.6742H110.669H110.704V12.6224L110.652 12.5878H110.617V12.6224Z" fill="black"/>
<path fill-rule="evenodd" clip-rule="evenodd" d="M110.997 12.3789V12.3962L111.015 12.4308V12.4481V12.4308L110.997 12.5172H110.859L110.842 12.4654L110.859 12.4308L110.894 12.3962L110.946 12.3789H110.997Z" fill="black"/>
<path fill-rule="evenodd" clip-rule="evenodd" d="M107.14 11.4121L107.175 11.3948V11.3775H107.088V11.3429L107.123 11.3256H107.175L107.192 11.291L107.209 11.3256V11.3429V11.3775L107.261 11.3256H107.331H107.365H107.417L107.469 11.291H107.504L107.538 11.3429V11.3775V11.4121H107.504L107.469 11.4466H107.434L107.365 11.4985L107.313 11.5158L107.209 11.4639H107.175L107.14 11.4121Z" fill="black"/>
<path fill-rule="evenodd" clip-rule="evenodd" d="M104.304 11.5502L104.269 11.5156L104.217 11.4983H104.252L104.269 11.4464L104.304 11.4118V11.3945L104.321 11.4118H104.39L104.425 11.4464H104.477L104.511 11.4983V11.5156H104.442L104.39 11.4983L104.356 11.5156L104.304 11.5502Z" fill="black"/>
<path fill-rule="evenodd" clip-rule="evenodd" d="M104.719 11.2726V11.2553L104.771 11.2207H104.788L104.805 11.2726L104.788 11.2899H104.736L104.719 11.2726Z" fill="black"/>
<path fill-rule="evenodd" clip-rule="evenodd" d="M104.736 10.8594L104.805 10.8767L104.84 10.9112L104.719 10.9285H104.684L104.667 10.8594H104.736Z" fill="black"/>
<path fill-rule="evenodd" clip-rule="evenodd" d="M104.477 10.8594L104.425 10.8767L104.39 10.9285V10.9804L104.425 10.9977H104.442V10.9631V10.9285L104.494 10.9112L104.563 10.8594H104.615L104.65 10.9285V10.9631H104.684L104.788 10.9285L104.857 10.9631H104.892L104.944 10.9977L104.978 10.9804H105.013L105.03 10.9977V11.0323L105.151 11.0842L105.186 11.1014V11.1706H105.151V11.2052L105.186 11.2225H105.255L105.272 11.2571L105.307 11.2917H105.359V11.3435L105.307 11.3781H105.272L105.255 11.3954L105.203 11.3435H105.151L105.099 11.3262L105.134 11.3435L105.099 11.3781V11.4127L105.203 11.4646V11.4991V11.5164L105.186 11.551H105.151L105.065 11.5164L105.082 11.551L105.099 11.5856L105.134 11.6202L105.099 11.5856H105.013L104.944 11.5683L104.892 11.551L104.84 11.4646H104.805H104.684L104.667 11.4473V11.4127H104.684H104.771L104.84 11.3954V11.3435V11.3262L104.909 11.2917V11.2571L104.892 11.2052L104.857 11.1706H104.788L104.719 11.1014H104.667V11.1187H104.65L104.598 11.1014H104.477L104.373 11.0842H104.304H104.269L104.252 10.9977L104.217 10.9804L104.321 10.9112L104.39 10.8594H104.477Z" fill="black"/>
<path fill-rule="evenodd" clip-rule="evenodd" d="M104.027 10.7885H104.061L104.079 10.7539H104.131L104.183 10.7885V10.8058H104.096L104.027 10.7885Z" fill="black"/>
<path fill-rule="evenodd" clip-rule="evenodd" d="M103.768 10.9269H103.802V10.875H103.975L103.923 10.9096V10.9269V10.9615V10.9787L103.889 10.996L103.837 11.0306L103.802 10.996L103.785 10.9615L103.733 10.9269H103.768Z" fill="black"/>
<path fill-rule="evenodd" clip-rule="evenodd" d="M103.923 10.789L103.975 10.7544H104.009V10.6853L103.923 10.668L103.888 10.7026H103.836L103.802 10.7371L103.854 10.7544V10.789H103.923Z" fill="black"/>
<path fill-rule="evenodd" clip-rule="evenodd" d="M103.369 10.789H103.179V10.7544L103.266 10.6853L103.369 10.7026L103.473 10.7544H103.491L103.508 10.7371L103.491 10.6853L103.508 10.668H103.56V10.7026L103.612 10.7371L103.629 10.7026L103.664 10.7371V10.789L103.629 10.8063H103.56L103.491 10.789L103.439 10.8063L103.369 10.8236H103.318H103.3L103.369 10.789Z" fill="black"/>
<path fill-rule="evenodd" clip-rule="evenodd" d="M103.179 10.7036L103.214 10.6864L103.248 10.6691L103.266 10.6345V10.6172L103.179 10.6345L103.041 10.6691L102.972 10.7036V10.7382H103.024L103.075 10.7036H103.093L103.145 10.6864L103.179 10.7036Z" fill="black"/>
<path fill-rule="evenodd" clip-rule="evenodd" d="M103.768 10.4961H103.785H103.837L103.889 10.5134H103.923L103.958 10.5307V10.5653L103.975 10.5825H103.906L103.889 10.5653H103.802H103.785L103.802 10.5307L103.785 10.5134L103.768 10.4961Z" fill="black"/>
<path fill-rule="evenodd" clip-rule="evenodd" d="M103.473 10.5645L103.421 10.5817L103.387 10.6163L103.421 10.6336H103.49L103.508 10.6163L103.542 10.5817L103.508 10.5645H103.473Z" fill="black"/>
<path fill-rule="evenodd" clip-rule="evenodd" d="M104.062 10.6674H104.079L104.131 10.6328L104.183 10.6674H104.217H104.269L104.304 10.6847V10.702L104.269 10.7366L104.321 10.7539H104.442H104.511L104.598 10.7366L104.65 10.7539L104.719 10.7884V10.8057L104.684 10.823L104.546 10.8057L104.39 10.823H104.321L104.304 10.8057H104.252L104.217 10.7884V10.702L104.131 10.6847L104.079 10.6674H104.062Z" fill="black"/>
<path fill-rule="evenodd" clip-rule="evenodd" d="M103.266 11.0833H103.197H103.145H103.041L103.024 11.0487L103.041 11.0314L103.006 10.9968L103.041 10.9623L103.179 10.9104H103.145H103.076L103.006 10.9277L102.972 10.9796H102.955L102.92 11.0314H102.885L102.833 11.0487L102.747 10.9796H102.712L102.747 10.9277L102.782 10.9104L102.799 10.8758L102.833 10.8585L102.799 10.8239L102.851 10.8066L103.006 10.8239H103.041L103.145 10.8585H103.197L103.179 10.9104H103.197H103.214L103.318 10.9277H103.335V10.9623L103.37 10.9277H103.422H103.439V10.9968H103.473L103.491 10.9796V10.9277L103.508 10.9104L103.595 10.8585H103.664V10.9104L103.612 10.9277V10.9796V10.9968V11.0314V11.0833L103.716 11.1006H103.733L103.716 11.1179H103.664V11.1525L103.716 11.1698L103.664 11.2043H103.612L103.508 11.1698H103.422H103.37V11.2043L103.214 11.2216L103.197 11.2043L103.145 11.1698L103.076 11.1525L103.041 11.1179V11.1006L103.179 11.0833H103.266Z" fill="black"/>
<path fill-rule="evenodd" clip-rule="evenodd" d="M106.915 10.2006L106.898 10.166H106.777H106.742H106.535H106.5H106.483L106.448 10.2006H106.362L106.327 10.166L106.241 10.2006L106.137 10.2179V10.2352L106.154 10.2871L106.033 10.2352H106.016V10.2871H105.999H105.964H105.912H105.86V10.2698L105.843 10.2352H105.67L105.618 10.2871H105.566L105.532 10.3562H105.48H105.428L105.359 10.3908V10.4081L105.393 10.4427V10.46L105.307 10.4945L105.203 10.5118L105.099 10.5291V10.581L105.203 10.6156L105.307 10.581L105.359 10.6156L105.324 10.6329H105.203L105.151 10.6675H105.203L105.307 10.7366L105.359 10.702L105.445 10.6847L105.618 10.7366L105.67 10.7539V10.8231L105.722 10.9095V10.996H105.774L105.826 10.9787L105.843 10.996L105.86 11.0479H105.826L105.791 11.0824H105.774H105.722L105.687 11.0997L105.722 11.117L105.774 11.1516H105.826V11.0997H105.86V11.117L105.843 11.1689L105.826 11.2035V11.2208H105.774L105.722 11.2554V11.3418L105.774 11.411V11.4628L105.826 11.5493L105.895 11.6358L105.912 11.6703L106.016 11.6358L106.033 11.6876L106.085 11.7049H106.12L106.137 11.6703L106.154 11.5839L106.189 11.5666V11.5147L106.241 11.4974V11.4456L106.258 11.411L106.293 11.3937L106.362 11.3764L106.448 11.3418L106.5 11.3245L106.535 11.2899L106.604 11.2554L106.621 11.2208L106.725 11.2035H106.846L106.915 11.1689L106.967 11.1516H107.036L107.14 11.0997L107.175 11.0824H107.14L107.036 11.0479V11.0306L107.088 10.996L107.14 11.0479H107.192H107.244V10.996L107.175 10.9095L107.261 10.8749V10.8577L107.33 10.8231V10.702L107.296 10.6847L107.313 10.6675H107.365V10.6329V10.581L107.296 10.5637H107.261L107.296 10.5118L107.365 10.46V10.4427L107.382 10.4081L107.469 10.3908V10.3562L107.607 10.2871L107.538 10.2698L107.469 10.2352L107.417 10.2871H107.261L107.209 10.3216L107.175 10.3562L107.209 10.2871L107.175 10.2352L107.088 10.2871H106.95L107.002 10.2698H107.071L107.14 10.2352H107.192H107.209L107.261 10.2179V10.2006H107.192L107.175 10.2179H107.14V10.2006H107.088H106.915Z" fill="black"/>
<path fill-rule="evenodd" clip-rule="evenodd" d="M104.667 10.4087H104.615L104.598 10.3914L104.563 10.3568H104.511L104.494 10.3395L104.442 10.3222L104.425 10.3395L104.39 10.3914L104.442 10.4087L104.511 10.4432L104.563 10.4951H104.546L104.494 10.5124L104.39 10.5643H104.321H104.269V10.5297V10.5124L104.321 10.4951H104.217L104.183 10.4605V10.4432L104.2 10.4087V10.3914H104.217L104.304 10.3395H104.39V10.2876L104.442 10.3222L104.494 10.2876L104.546 10.2703L104.598 10.2358H104.719L104.771 10.2703L104.736 10.2358L104.84 10.2185L104.857 10.2012L104.909 10.2185L104.961 10.2012H105.013H105.082H105.099H105.203H105.255H105.359L105.376 10.2185H105.532V10.2358H105.566H105.601L105.48 10.2876L105.393 10.3222L105.359 10.3568H105.272L105.151 10.4432H105.03V10.4605L104.978 10.4951H104.961H104.978L105.013 10.5124L104.961 10.5297L104.944 10.5643L104.857 10.5816L104.84 10.6162L104.805 10.6334H104.788L104.805 10.668L104.771 10.7026H104.719L104.667 10.6853H104.598H104.563L104.546 10.7026L104.494 10.6853H104.373L104.356 10.668L104.373 10.6334H104.442V10.6162V10.5816H104.494L104.546 10.6334H104.598V10.6162L104.563 10.5816V10.5643L104.511 10.5297L104.546 10.5124H104.598H104.65L104.615 10.4087H104.736H104.667Z" fill="black"/>
<path fill-rule="evenodd" clip-rule="evenodd" d="M115.703 10.962L115.72 10.9274V10.9102L115.789 10.9274H115.841L115.824 10.962H115.737H115.72H115.703Z" fill="black"/>
<path fill-rule="evenodd" clip-rule="evenodd" d="M114.354 10.6853L114.233 10.668H114.181L114.25 10.6853L114.302 10.7026L114.354 10.6853Z" fill="black"/>
<path fill-rule="evenodd" clip-rule="evenodd" d="M114.007 10.8064L114.025 10.7891H114.059H114.077L114.094 10.8064L114.077 10.8236L114.007 10.8064Z" fill="black"/>
<path fill-rule="evenodd" clip-rule="evenodd" d="M113.938 10.6674L113.973 10.6328L114.077 10.6847L114.059 10.6674H114.094H114.128L114.094 10.6847H114.077L114.025 10.702H113.938L113.886 10.7366H113.852L113.834 10.702L113.8 10.6674H113.938Z" fill="black"/>
<path fill-rule="evenodd" clip-rule="evenodd" d="M112.295 10.4428L112.33 10.4082L112.382 10.4947H112.364H112.261L112.191 10.5119V10.4947V10.4428L112.243 10.4082H112.261L112.295 10.4428Z" fill="black"/>
<path fill-rule="evenodd" clip-rule="evenodd" d="M112.001 10.3563H111.915L111.897 10.3909L111.915 10.4081H111.949L112.018 10.4427H112.139V10.3909V10.3563H112.122L112.07 10.3909L112.018 10.3563V10.3217L111.966 10.2871H111.949L111.88 10.3217L111.793 10.339L111.828 10.3563H111.897H112.001Z" fill="black"/>
<path fill-rule="evenodd" clip-rule="evenodd" d="M110.202 11.1189V11.1016H110.254L110.271 11.1189L110.237 11.1534L110.202 11.1189Z" fill="black"/>
<path fill-rule="evenodd" clip-rule="evenodd" d="M110.548 10.3571H110.617L110.6 10.3398H110.531L110.479 10.3571H110.548Z" fill="black"/>
<path fill-rule="evenodd" clip-rule="evenodd" d="M110.617 10.339H110.704H110.721L110.738 10.3217L110.704 10.2871L110.669 10.3217L110.617 10.339Z" fill="black"/>
<path fill-rule="evenodd" clip-rule="evenodd" d="M110.41 10.3574H110.427H110.444V10.392H110.427L110.41 10.3574Z" fill="black"/>
<path fill-rule="evenodd" clip-rule="evenodd" d="M109.942 10.3571L110.012 10.3398L110.063 10.3571L110.029 10.3917H110.081V10.3571H110.185H110.15V10.3398H110.133H110.081V10.3571H110.063L110.029 10.3917H110.012L109.977 10.3571H109.942Z" fill="black"/>
<path fill-rule="evenodd" clip-rule="evenodd" d="M109.095 10.4439H109.147L109.199 10.4093L109.147 10.392H109.095L109.078 10.3574L109.06 10.392L109.008 10.3574L108.974 10.392L108.956 10.3574H108.887H108.853L108.801 10.392L108.835 10.4093L108.939 10.4439L109.008 10.4612H109.026L109.095 10.4439Z" fill="black"/>
<path fill-rule="evenodd" clip-rule="evenodd" d="M108.542 10.4082H108.645H108.68L108.732 10.4428V10.4082H108.801L108.836 10.4428H108.887L108.957 10.4947H109.009L109.06 10.5119L109.078 10.5638H109.095V10.5811H108.974L108.957 10.5638V10.5292L108.939 10.5119H108.887L108.836 10.633L108.784 10.6676L108.732 10.6157L108.714 10.5811L108.68 10.5638L108.663 10.5292H108.766L108.784 10.5119L108.766 10.4947H108.714L108.663 10.5292H108.593L108.559 10.5119V10.4601L108.542 10.4082Z" fill="black"/>
<path fill-rule="evenodd" clip-rule="evenodd" d="M110.704 10.7382H110.652V10.7555H110.617L110.6 10.7901H110.548V10.8074L110.531 10.8247L110.496 10.8593V10.963L110.531 10.9976L110.548 11.0322H110.375V10.963H110.323L110.306 10.9284L110.358 10.9111V10.8593L110.375 10.8074L110.427 10.7555L110.409 10.7382L110.444 10.7036L110.548 10.6864L110.652 10.6691L110.79 10.6345L110.859 10.6172H110.946V10.6345V10.6691H110.859L110.773 10.6864H110.738L110.704 10.7382Z" fill="black"/>
<path fill-rule="evenodd" clip-rule="evenodd" d="M102.003 12.0352L102.02 12.087V12.1043L102.038 12.1389V12.1043L102.072 12.0524L102.02 12.0352H102.003Z" fill="black"/>
<path fill-rule="evenodd" clip-rule="evenodd" d="M105.393 16.8066H105.359L105.324 16.8412H105.359L105.376 16.8066H105.393Z" fill="black"/>
<path fill-rule="evenodd" clip-rule="evenodd" d="M104.84 13.7285V13.7458H104.857L104.892 13.7285H104.84Z" fill="black"/>
<path fill-rule="evenodd" clip-rule="evenodd" d="M104.684 13.729H104.719L104.736 13.6945L104.684 13.6426H104.615L104.598 13.6945V13.729L104.615 13.7636L104.65 13.729H104.684Z" fill="black"/>
<path fill-rule="evenodd" clip-rule="evenodd" d="M104.598 13.729L104.494 13.7463V13.729H104.442H104.494L104.511 13.6945V13.6426L104.563 13.6772L104.598 13.6945V13.729Z" fill="black"/>
<path fill-rule="evenodd" clip-rule="evenodd" d="M104.252 13.7279L104.304 13.7452H104.356L104.373 13.7279L104.321 13.6934H104.269L104.252 13.7279Z" fill="black"/>
<path fill-rule="evenodd" clip-rule="evenodd" d="M104.148 13.5734H104.183L104.217 13.6079H104.252L104.321 13.6425H104.442L104.477 13.6252L104.39 13.6079L104.304 13.5734L104.2 13.5561L104.183 13.5215H104.079H104.027L103.975 13.5734L104.01 13.5561H104.062H104.079L104.148 13.5734Z" fill="black"/>
<path fill-rule="evenodd" clip-rule="evenodd" d="M101.086 11.8786L101.121 11.8613H101.19L101.207 11.8786L101.156 11.9132H101.086V11.8786Z" fill="black"/>
<path fill-rule="evenodd" clip-rule="evenodd" d="M100.567 12.034L100.671 11.9994H100.688L100.792 11.9821V11.9648H100.775L100.688 11.9821L100.654 11.9994L100.567 12.034Z" fill="black"/>
<path fill-rule="evenodd" clip-rule="evenodd" d="M100.602 11.7051H100.654V11.7397H100.619L100.602 11.7051Z" fill="black"/>
<path fill-rule="evenodd" clip-rule="evenodd" d="M100.498 11.5508H100.55H100.602L100.567 11.5681L100.498 11.5508Z" fill="black"/>
<path fill-rule="evenodd" clip-rule="evenodd" d="M102.245 12.2246H102.193V12.2592V12.2765L102.297 12.2938L102.332 12.3284L102.297 12.2765L102.245 12.2246Z" fill="black"/>
<path fill-rule="evenodd" clip-rule="evenodd" d="M114.405 12.9343H114.475L114.423 12.9862H114.475L114.544 12.9343H114.596H114.613L114.648 12.917H114.734L114.769 12.8824L114.786 12.8651V12.7441L114.821 12.7268V12.6749L114.769 12.623H114.717V12.6749L114.734 12.6922L114.699 12.7614L114.648 12.796V12.8132L114.613 12.796L114.561 12.8651H114.544H114.475L114.405 12.8824L114.354 12.9343H114.405Z" fill="black"/>
<path fill-rule="evenodd" clip-rule="evenodd" d="M114.665 12.5521L114.699 12.5002H114.716L114.734 12.4656L114.716 12.4484V12.4311L114.734 12.3965L114.768 12.4311L114.82 12.4484H114.889L114.907 12.5002L114.855 12.5521L114.82 12.5694L114.786 12.5521H114.716V12.5694L114.699 12.5867V12.5694V12.5521H114.665Z" fill="black"/>
<path fill-rule="evenodd" clip-rule="evenodd" d="M109.424 12.9852L109.32 12.9679L109.303 12.9333L109.233 12.916L109.303 12.9333H109.389L109.424 12.9852Z" fill="black"/>
<path fill-rule="evenodd" clip-rule="evenodd" d="M108.559 12.5703L108.593 12.5876V12.6222L108.559 12.6741H108.611V12.7432L108.593 12.7605H108.542V12.7432V12.6741H108.559V12.6395L108.542 12.6222L108.559 12.5876V12.5703Z" fill="black"/>
<path fill-rule="evenodd" clip-rule="evenodd" d="M108.265 12.7266L108.317 12.7439V12.7611L108.265 12.7439V12.7266Z" fill="black"/>
<path fill-rule="evenodd" clip-rule="evenodd" d="M107.919 12.2074H108.126L108.178 12.1728L108.213 12.0863H108.178V12.0518V12.0863H108.144V12.0345L108.075 11.9653L108.057 11.9307L108.023 11.9134V11.8616V11.8443L107.953 11.8097V11.7578L107.902 11.7924L107.884 11.8443V11.8788L107.902 11.9134V11.9307L107.919 11.9653V11.9826H107.953H107.971V12.0345H108.005L107.971 12.0518L107.919 12.0863V12.1036L107.902 12.1555L107.919 12.1728V12.2074Z" fill="black"/>
<path fill-rule="evenodd" clip-rule="evenodd" d="M107.659 12.1378V12.1032L107.676 12.0859L107.659 12.0513L107.711 11.9994L107.728 11.9821V11.9648H107.78H107.832L107.884 11.9994L107.849 12.034V12.1032L107.78 12.155H107.659V12.1378Z" fill="black"/>
<path fill-rule="evenodd" clip-rule="evenodd" d="M114.319 12.9855L114.371 12.9336L114.405 12.9682V12.9855V13.02L114.371 13.0546L114.319 12.9855Z" fill="black"/>
<path fill-rule="evenodd" clip-rule="evenodd" d="M114.717 12.3452L114.699 12.2934V12.2761H114.665L114.648 12.1032L114.613 12.0859L114.596 12.0513V11.9648H114.613L114.648 11.9994L114.699 12.0859L114.769 12.2069H114.786V12.2242L114.734 12.2069L114.699 12.2242L114.717 12.2761L114.734 12.2934L114.769 12.328L114.717 12.3452Z" fill="black"/>
<path fill-rule="evenodd" clip-rule="evenodd" d="M108.853 12.8125H108.732L108.801 12.8644H108.853V12.8125Z" fill="black"/>
<path fill-rule="evenodd" clip-rule="evenodd" d="M114.993 16.253L115.01 16.2012H115.062H115.149V16.2703L115.062 16.3222H115.01V16.2703L114.993 16.253Z" fill="black"/>
<path fill-rule="evenodd" clip-rule="evenodd" d="M115.53 14.8519H115.478H115.409L115.305 14.7482L115.253 14.7309L115.149 14.8H115.011L114.942 14.7827H114.907V14.7482L114.942 14.6963L114.907 14.679L114.89 14.6271L114.717 14.5753H114.665L114.648 14.558L114.665 14.5234L114.648 14.5061L114.596 14.4888V14.4542L114.613 14.4369L114.665 14.4023L114.717 14.4542L114.734 14.5061L114.786 14.5234L114.855 14.5061L114.89 14.4888L115.236 14.5753L115.253 14.6098H115.288L115.305 14.6271L115.357 14.6444L115.409 14.679L115.357 14.7309L115.426 14.7827L115.478 14.8L115.53 14.8519Z" fill="black"/>
<path fill-rule="evenodd" clip-rule="evenodd" d="M115.426 14.644L115.443 14.6267L115.53 14.644L115.547 14.6267L115.599 14.6094V14.6267V14.644H115.53H115.443H115.426Z" fill="black"/>
<path fill-rule="evenodd" clip-rule="evenodd" d="M114.371 14.7832L114.354 14.8005L114.267 14.8524H114.25H114.198H114.181L114.319 14.7832H114.371Z" fill="black"/>
<path fill-rule="evenodd" clip-rule="evenodd" d="M113.973 14.7832H113.852H113.886L113.903 14.8005L113.938 14.7832H113.973Z" fill="black"/>
<path fill-rule="evenodd" clip-rule="evenodd" d="M115.547 14.5234H115.599L115.616 14.5753V14.6099L115.599 14.5753L115.547 14.5234Z" fill="black"/>
<path fill-rule="evenodd" clip-rule="evenodd" d="M114.561 14.558L114.526 14.5234H114.475H114.44V14.558H114.475H114.561Z" fill="black"/>
<path fill-rule="evenodd" clip-rule="evenodd" d="M114.405 14.4377V14.334L114.423 14.3513H114.44L114.405 14.4377Z" fill="black"/>
<path fill-rule="evenodd" clip-rule="evenodd" d="M114.076 14.5242L114.094 14.5588L114.128 14.6279L114.146 14.6106V14.5761V14.5588L114.128 14.5242V14.5069L114.18 14.4896V14.4377H114.146L114.076 14.455L114.059 14.4377L114.094 14.4031H114.249L114.267 14.3513H114.301H114.198L114.094 14.334L114.059 14.3513L114.025 14.4031V14.4377V14.455L113.973 14.5069V14.5242L114.007 14.5761V14.6279L114.025 14.6452L114.059 14.6279L114.076 14.5242Z" fill="black"/>
<path fill-rule="evenodd" clip-rule="evenodd" d="M113.904 14.0572L113.973 13.988V13.9707L113.956 14.0226L113.904 14.0572Z" fill="black"/>
<path fill-rule="evenodd" clip-rule="evenodd" d="M114.25 13.9888V13.9196H114.267L114.25 13.9023V13.9369V13.9888Z" fill="black"/>
<path fill-rule="evenodd" clip-rule="evenodd" d="M114.146 14.058H114.232L114.25 14.0407L114.319 14.0234L114.353 14.0926V14.1445H114.319L114.301 14.1618H114.267L114.232 14.1445L114.25 14.1099L114.232 14.0926L114.18 14.1099H114.128L114.146 14.058Z" fill="black"/>
<path fill-rule="evenodd" clip-rule="evenodd" d="M114.18 14.022H114.146V13.9701H114.128V13.9355H114.146L114.18 14.022Z" fill="black"/>
<path fill-rule="evenodd" clip-rule="evenodd" d="M114.128 13.8145H114.146V13.849L114.18 13.8663L114.232 13.849H114.18L114.128 13.8145Z" fill="black"/>
<path fill-rule="evenodd" clip-rule="evenodd" d="M113.973 13.746L114.007 13.7287V13.6423L114.025 13.625L114.076 13.6423L114.094 13.7287L114.076 13.7633V13.8152L114.094 13.8498L114.076 13.9017L114.059 13.8671L114.025 13.7979L113.973 13.746Z" fill="black"/>
<path fill-rule="evenodd" clip-rule="evenodd" d="M114.007 13.4687H113.973V13.4514V13.3477H114.007H114.025V13.4514L114.007 13.4687Z" fill="black"/>
<path fill-rule="evenodd" clip-rule="evenodd" d="M110.306 15.4917L110.323 15.3879V15.3361L110.358 15.2842L110.323 15.1977L110.375 15.1459L110.427 15.1113L110.444 15.094L110.496 15.0767L110.531 15.0421L110.548 15.0248L110.6 14.9902L110.652 15.0421V15.094L110.617 15.1459V15.215L110.548 15.3188L110.496 15.4398V15.509L110.375 15.5263H110.323V15.4917H110.306Z" fill="black"/>
<path fill-rule="evenodd" clip-rule="evenodd" d="M113.488 14.352H113.54L113.609 14.2829H113.713L113.765 14.231L113.8 14.2137L113.852 14.1445H113.886L113.973 14.1618H114.007V14.2137L113.938 14.2656L113.955 14.3347H113.973L114.007 14.352L113.938 14.4039V14.4385L113.886 14.4904L113.852 14.5595V14.5768H113.8L113.73 14.5595H113.661H113.609L113.557 14.5249V14.5076L113.506 14.4904V14.4039L113.488 14.352Z" fill="black"/>
<path fill-rule="evenodd" clip-rule="evenodd" d="M112.07 14.041L112.036 14.1448L112.088 14.1621H112.122L112.174 14.1448L112.191 14.1102L112.088 14.041H112.07Z" fill="black"/>
<path fill-rule="evenodd" clip-rule="evenodd" d="M115.703 14.6289L115.72 14.6462H115.703V14.6289Z" fill="black"/>
<path fill-rule="evenodd" clip-rule="evenodd" d="M114.06 14.7832H114.129L114.077 14.8005L114.06 14.7832Z" fill="black"/>
<path fill-rule="evenodd" clip-rule="evenodd" d="M113.973 14.8184H114.059L114.076 14.8529L113.973 14.8184Z" fill="black"/>
<path fill-rule="evenodd" clip-rule="evenodd" d="M115.495 15.7861L115.53 15.6997V15.6824L115.547 15.5614L115.478 15.3884V15.3712L115.409 15.3366L115.374 15.2674L115.288 15.1982L115.253 15.1637L115.236 15.0945V15.0426L115.201 15.0253H115.149L115.132 14.9043H115.115L115.063 14.9735V15.0426L114.994 15.1637L114.855 15.0772L114.786 15.0426V15.0253L114.821 14.9389V14.9216L114.699 14.9043H114.613L114.561 14.9216L114.526 14.9389L114.475 15.0253L114.492 15.0426H114.475L114.423 15.0772L114.405 15.0426L114.371 15.0253H114.354H114.302L114.232 15.0945L114.198 15.1118H114.129L114.094 15.1464L114.077 15.2155V15.2328L113.835 15.3193L113.783 15.3366L113.731 15.3712H113.679V15.5268H113.662V15.5614L113.679 15.6305L113.714 15.8207L113.679 15.8726L113.714 15.9245H113.783H113.835L113.886 15.8726H114.059L114.319 15.7861H114.423L114.596 15.8034L114.613 15.8553L114.648 15.9072L114.665 15.8726L114.717 15.8553L114.769 15.8207V15.8726L114.734 15.9245L114.769 15.9591H114.786L114.821 15.9936V16.0455L114.855 16.0801H114.907L114.959 16.0974L115.011 16.0801H115.063L115.115 16.0974L115.149 16.0801L115.201 16.0455H115.253L115.288 16.0282L115.357 15.8726L115.495 15.7861Z" fill="black"/>
<path fill-rule="evenodd" clip-rule="evenodd" d="M113.488 14.7489H113.419L113.385 14.7316L113.315 14.697L113.367 14.6797H113.419L113.488 14.697H113.54L113.609 14.6797V14.697L113.713 14.7316V14.7489L113.765 14.7834H113.558H113.54H113.506L113.488 14.7489Z" fill="black"/>
<path fill-rule="evenodd" clip-rule="evenodd" d="M113.073 14.4893V14.4547L113.056 14.4374V14.4028L113.021 14.3855H113.004V14.3509L112.969 14.3336H112.952V14.3164L112.917 14.2818L112.848 14.2645L112.796 14.2126L112.831 14.1953L112.848 14.2126H112.9H112.952L113.004 14.2299V14.2818L113.09 14.3336L113.194 14.3509L113.246 14.4028V14.4547L113.315 14.5238L113.367 14.5584V14.5757L113.35 14.6103V14.6795H113.315H113.298L113.263 14.6449L113.142 14.5584L113.073 14.4893Z" fill="black"/>
<path fill-rule="evenodd" clip-rule="evenodd" d="M113.437 13.6088H113.488L113.506 13.5742V13.6261L113.488 13.6434H113.471L113.437 13.6088Z" fill="black"/>
<path d="M105.134 13.5557C105.134 11.7228 106.431 10.132 108.472 9.02539L108.524 9.14643C106.518 10.2531 105.272 11.8093 105.272 13.5557C105.272 15.302 106.518 16.8928 108.524 17.9822L108.472 18.1378C106.431 16.9966 105.134 15.3885 105.134 13.5557Z" fill="black"/>
<path d="M103.093 22.8926L103.197 22.2528L102.747 21.786L103.387 21.7168L103.664 21.1289L103.958 21.7168L104.598 21.8033L104.131 22.2528L104.217 22.9099L103.664 22.5986L103.093 22.8926Z" fill="black"/>
<path d="M112.554 22.8926L112.658 22.2528L112.208 21.786L112.849 21.7168L113.125 21.1289L113.419 21.7168L114.059 21.8033L113.592 22.2528L113.679 22.9099L113.125 22.5986L112.554 22.8926Z" fill="black"/>
<path d="M110.185 22.8926L110.306 22.2528L109.839 21.786L110.479 21.7168L110.773 21.1289L111.032 21.7168L111.707 21.8033L111.24 22.2528L111.326 22.9099L110.773 22.5986L110.185 22.8926Z" fill="black"/>
<path d="M107.832 22.8926L107.919 22.2528L107.486 21.786L108.126 21.7168L108.386 21.1289L108.68 21.7168L109.32 21.8033L108.853 22.2528L108.957 22.9099L108.386 22.5986L107.832 22.8926Z" fill="black"/>
<path d="M105.445 22.8926L105.566 22.2528L105.099 21.786L105.739 21.7168L106.033 21.1289L106.31 21.7168L106.95 21.8033L106.5 22.2528L106.604 22.9099L106.033 22.5986L105.445 22.8926Z" fill="black"/>
<path d="M101.311 18.916H101.882L102.28 20.0745L102.678 18.916H103.248V20.6797H102.85V19.3137L102.383 20.6624H102.089L101.726 19.3137V20.6624H101.328V18.916H101.311Z" fill="black"/>
<path d="M103.612 18.916H104.01V20.6797H103.612V18.916Z" fill="black"/>
<path d="M105.895 20.5419C105.774 20.5938 105.67 20.6456 105.549 20.6629C105.428 20.6802 105.307 20.7148 105.186 20.7148C105.03 20.7148 104.909 20.6975 104.823 20.6456C104.701 20.5938 104.598 20.5419 104.529 20.4554C104.459 20.3863 104.373 20.2825 104.338 20.1615C104.286 20.0405 104.269 19.9194 104.269 19.7638C104.269 19.6082 104.286 19.4871 104.338 19.3661C104.39 19.2451 104.442 19.1413 104.529 19.0722C104.598 19.003 104.701 18.9165 104.823 18.8992C104.944 18.8474 105.065 18.8301 105.186 18.8301C105.307 18.8301 105.463 18.8474 105.584 18.882C105.705 18.8992 105.809 18.9857 105.878 19.0549L105.601 19.3488C105.549 19.2969 105.497 19.2451 105.428 19.2278C105.359 19.2105 105.272 19.1759 105.186 19.1759C105.117 19.1759 105.03 19.1932 104.961 19.2278C104.892 19.2451 104.84 19.2969 104.788 19.3488C104.736 19.4007 104.719 19.4526 104.684 19.5217C104.667 19.5909 104.632 19.6773 104.632 19.7465C104.632 19.8157 104.65 19.9021 104.684 19.9713C104.701 20.0405 104.736 20.0923 104.788 20.1442C104.84 20.1961 104.892 20.2479 104.961 20.2652C105.03 20.2825 105.117 20.3171 105.186 20.3171C105.255 20.3171 105.341 20.3171 105.411 20.2998C105.463 20.2825 105.514 20.2479 105.566 20.2479V19.954H105.255V19.5909H105.947L105.895 20.5419Z" fill="black"/>
<path d="M106.241 18.916H106.898C107.002 18.916 107.071 18.916 107.14 18.9333C107.209 18.9506 107.296 18.9852 107.33 19.0371C107.382 19.0889 107.434 19.1408 107.486 19.21C107.503 19.2791 107.538 19.3656 107.538 19.4866C107.538 19.6077 107.521 19.7114 107.434 19.7979C107.365 19.867 107.279 19.9535 107.157 19.9708L107.607 20.7143H107.14L106.777 20.0226H106.587V20.7143H106.241C106.241 20.6624 106.241 18.916 106.241 18.916ZM106.621 19.6249H106.846C106.863 19.6249 106.915 19.6249 106.95 19.6249C107.002 19.6249 107.019 19.6249 107.054 19.6077C107.071 19.5904 107.106 19.5904 107.123 19.5558C107.14 19.5385 107.14 19.4866 107.14 19.452C107.14 19.4347 107.14 19.3829 107.123 19.3483C107.106 19.331 107.071 19.2964 107.054 19.2964C107.036 19.2791 107.002 19.2791 106.95 19.2791C106.933 19.2791 106.881 19.2791 106.846 19.2791H106.604L106.621 19.6249Z" fill="black"/>
<path d="M108.386 18.916H108.697L109.458 20.6797H109.009L108.853 20.282H108.161L108.005 20.6451H107.59L108.386 18.916ZM108.542 19.4347L108.317 19.9708H108.732L108.542 19.4347Z" fill="black"/>
<path d="M110.773 19.3661C110.721 19.3142 110.704 19.2969 110.617 19.2624C110.565 19.2451 110.496 19.2451 110.427 19.2451C110.358 19.2451 110.271 19.2624 110.237 19.2969C110.185 19.3142 110.116 19.3661 110.081 19.418C110.029 19.4698 110.012 19.5217 109.977 19.5909C109.96 19.66 109.925 19.7465 109.925 19.8157C109.925 19.8848 109.943 19.9713 109.977 20.0405C109.995 20.1096 110.029 20.1615 110.081 20.2134C110.133 20.2652 110.185 20.3171 110.237 20.3344C110.289 20.3517 110.358 20.3863 110.427 20.3863C110.496 20.3863 110.583 20.369 110.617 20.3344C110.669 20.3171 110.721 20.2652 110.773 20.1788L111.084 20.4209C111.015 20.5246 110.911 20.5938 110.808 20.6456C110.687 20.6975 110.583 20.7148 110.462 20.7148C110.341 20.7148 110.185 20.6975 110.098 20.6456C109.977 20.5938 109.874 20.5419 109.804 20.4554C109.735 20.3863 109.649 20.2825 109.614 20.1615C109.562 20.0405 109.545 19.9194 109.545 19.7638C109.545 19.6082 109.562 19.4871 109.614 19.3661C109.666 19.2451 109.718 19.1413 109.804 19.0722C109.874 19.003 109.977 18.9165 110.098 18.8992C110.22 18.8474 110.341 18.8301 110.462 18.8301C110.514 18.8301 110.565 18.8301 110.617 18.8474C110.669 18.8647 110.721 18.8647 110.773 18.8992C110.825 18.9165 110.877 18.9511 110.929 18.9684C110.981 18.9857 111.033 19.0376 111.05 19.0894L110.773 19.3661Z" fill="black"/>
<path d="M111.292 18.916H111.69V20.6797H111.292V18.916Z" fill="black"/>
<path d="M111.915 19.7814C111.915 19.6258 111.932 19.5047 111.984 19.3837C112.036 19.2626 112.088 19.1589 112.174 19.0897C112.243 19.0206 112.347 18.9341 112.468 18.9168C112.572 18.8649 112.71 18.8477 112.831 18.8477C112.952 18.8477 113.108 18.8649 113.195 18.9168C113.316 18.9687 113.419 19.0206 113.489 19.0897C113.558 19.1589 113.644 19.2626 113.679 19.3837C113.731 19.5047 113.748 19.6258 113.748 19.7814C113.748 19.937 113.731 20.058 113.679 20.1791C113.627 20.3001 113.558 20.4039 113.489 20.473C113.419 20.5422 113.298 20.6286 113.195 20.6632C113.073 20.7151 112.952 20.7324 112.831 20.7324C112.71 20.7324 112.555 20.7151 112.468 20.6632C112.347 20.6113 112.243 20.5595 112.174 20.473C112.105 20.4039 112.018 20.3001 111.984 20.1791C111.949 20.0407 111.915 19.9197 111.915 19.7814ZM112.312 19.7814C112.312 19.8505 112.33 19.937 112.364 20.0062C112.382 20.0753 112.416 20.1272 112.468 20.1791C112.52 20.2309 112.572 20.2828 112.641 20.3001C112.71 20.3174 112.797 20.352 112.866 20.352C112.935 20.352 113.022 20.3347 113.091 20.3001C113.16 20.2828 113.212 20.2309 113.264 20.1791C113.316 20.1272 113.333 20.0753 113.368 20.0062C113.385 19.937 113.419 19.8505 113.419 19.7814C113.419 19.7122 113.402 19.6258 113.368 19.5566C113.35 19.4874 113.316 19.4356 113.264 19.3837C113.212 19.3318 113.16 19.2799 113.091 19.2626C113.022 19.2454 112.935 19.2108 112.866 19.2108C112.797 19.2108 112.71 19.2281 112.641 19.2626C112.572 19.2799 112.52 19.3318 112.468 19.3837C112.416 19.4356 112.399 19.4874 112.364 19.5566C112.33 19.6258 112.312 19.6949 112.312 19.7814Z" fill="black"/>
<path d="M114.059 18.916H114.578L115.322 20.1437V18.916H115.72V20.6797H115.201L114.44 19.4347V20.6797H114.042V18.916H114.059Z" fill="black"/>
<path d="M113.004 18.3965H113.419L113.056 18.6731H112.779L113.004 18.3965Z" fill="black"/>
<path d="M99.3049 5.32617H100.308C100.879 5.32617 101.346 5.49908 101.346 6.15614C101.346 6.8132 100.896 6.98611 100.343 6.98611H99.893V8.04087H99.2876L99.3049 5.32617ZM99.9103 6.50196H100.308C100.533 6.50196 100.723 6.4328 100.723 6.19073C100.723 5.91407 100.429 5.87949 100.204 5.87949H99.893V6.51926H99.9103V6.50196Z" fill="black"/>
<path d="M102.557 5.32617H103.041L104.217 8.04087H103.525L103.283 7.45297H102.228L102.003 8.04087H101.363L102.557 5.32617ZM102.799 6.12156L102.488 6.98611H103.145L102.799 6.12156Z" fill="black"/>
<path d="M104.805 5.32617H105.618L106.777 7.2109V5.32617H107.382V8.04087H106.604L105.411 6.10427V8.04087H104.822V5.32617H104.805Z" fill="black"/>
<path d="M109.147 5.32617H109.631L110.807 8.04087H110.15L109.908 7.45297H108.853L108.628 8.04087H107.936L109.147 5.32617ZM109.372 6.12156L109.06 6.98611H109.718L109.372 6.12156Z" fill="black"/>
<path d="M111.378 5.32617H112.278L112.918 7.10715L113.558 5.32617H114.457V8.04087H113.869V5.96594L113.16 8.04087H112.693L112.001 5.96594V8.04087H111.361C111.378 8.05816 111.378 5.32617 111.378 5.32617Z" fill="black"/>
<path d="M116.204 5.32623H116.688L117.882 8.04093H117.19L116.948 7.45303H115.893L115.668 8.04093H115.028L116.204 5.32623ZM116.55 4.85938H117.034L116.619 5.2052H116.325L116.55 4.85938ZM116.464 6.12162L116.118 6.98618H116.775L116.464 6.12162Z" fill="black"/>
<path d="M124.369 8.50781H125.995L127.119 11.6721H127.136L128.261 8.50781H129.887V13.3666H128.779V9.63173L127.499 13.3493H126.687L125.458 9.63173H125.441V13.3493H124.369V8.50781Z" fill="white"/>
<path d="M130.665 8.50781H131.737V13.3666H130.665V8.50781Z" fill="white"/>
<path d="M136.944 13.0207C136.633 13.1936 136.304 13.3147 135.958 13.3838C135.612 13.453 135.266 13.5049 134.903 13.5049C134.505 13.5049 134.159 13.453 133.848 13.332C133.536 13.2109 133.26 13.038 133.018 12.8132C132.775 12.5884 132.602 12.3291 132.481 12.0006C132.36 11.672 132.291 11.3435 132.291 10.9458C132.291 10.5481 132.36 10.2023 132.481 9.89104C132.602 9.5798 132.793 9.30315 133.018 9.07836C133.242 8.85358 133.536 8.68067 133.848 8.55963C134.159 8.43859 134.505 8.38672 134.903 8.38672C135.301 8.38672 135.664 8.43859 135.975 8.54234C136.287 8.64608 136.581 8.78441 136.84 9.02649L136.079 9.85646C135.923 9.70084 135.768 9.5798 135.595 9.51064C135.422 9.44147 135.18 9.3896 134.903 9.3896C134.678 9.3896 134.453 9.44147 134.298 9.51064C134.125 9.5798 133.952 9.70084 133.83 9.82188C133.709 9.94291 133.588 10.1158 133.536 10.306C133.485 10.4962 133.433 10.7037 133.433 10.9112C133.433 11.1187 133.45 11.3608 133.536 11.551C133.606 11.7412 133.709 11.9141 133.83 12.0351C133.952 12.1562 134.125 12.2772 134.298 12.3464C134.47 12.4155 134.695 12.4674 134.903 12.4674C135.11 12.4674 135.353 12.4501 135.508 12.3982C135.681 12.3464 135.802 12.2945 135.923 12.2253V11.4127H135.041V10.4271H136.961L136.944 13.0207Z" fill="white"/>
<path d="M137.705 8.50781H139.59C139.833 8.50781 140.075 8.5251 140.3 8.57698C140.525 8.62885 140.715 8.69801 140.888 8.81905C141.061 8.94009 141.182 9.09571 141.286 9.26862C141.389 9.45882 141.441 9.68361 141.441 9.97755C141.441 10.3234 141.338 10.6173 141.165 10.8594C140.992 11.1015 140.715 11.2571 140.386 11.3263L141.614 13.3839H140.334L139.331 11.4473H138.795V13.3839H137.722V8.50781H137.705ZM138.778 10.5136H139.418C139.521 10.5136 139.608 10.5136 139.712 10.5136C139.815 10.5136 139.902 10.4963 140.006 10.4617C140.109 10.4444 140.161 10.358 140.231 10.2888C140.282 10.2196 140.334 10.1159 140.334 9.97755C140.334 9.85652 140.317 9.75277 140.265 9.6836C140.213 9.61444 140.144 9.56257 140.075 9.51069C140.006 9.45882 139.902 9.44153 139.798 9.44153C139.694 9.44153 139.608 9.42424 139.504 9.42424H138.795L138.778 10.5136Z" fill="white"/>
<path d="M143.586 8.50781H144.468L146.579 13.3666H145.385L144.97 12.3291H143.085L142.669 13.3666H141.493L143.586 8.50781ZM144.001 9.90839L143.413 11.43H144.607L144.001 9.90839Z" fill="white"/>
<path d="M150.09 9.75042C149.986 9.62938 149.848 9.52563 149.692 9.45647C149.536 9.3873 149.346 9.35272 149.156 9.35272C148.966 9.35272 148.758 9.40459 148.585 9.47376C148.412 9.54292 148.274 9.66396 148.135 9.785C148.014 9.90604 147.91 10.0789 147.841 10.2691C147.772 10.4594 147.737 10.6668 147.737 10.8743C147.737 11.0818 147.755 11.3239 147.841 11.5141C147.928 11.7043 148.014 11.8772 148.135 11.9983C148.256 12.1539 148.412 12.2403 148.585 12.3095C148.758 12.3787 148.931 12.4305 149.121 12.4305C149.346 12.4305 149.536 12.3787 149.709 12.2749C149.882 12.1712 150.021 12.0501 150.124 11.8772L151.007 12.5343C150.816 12.8282 150.54 13.0184 150.228 13.174C149.917 13.3297 149.588 13.3642 149.242 13.3642C148.879 13.3642 148.498 13.3124 148.187 13.1913C147.876 13.0703 147.599 12.8974 147.357 12.6726C147.115 12.4478 146.942 12.1885 146.821 11.8599C146.7 11.5487 146.63 11.2029 146.63 10.8052C146.63 10.4075 146.7 10.0617 146.821 9.75042C146.942 9.43918 147.132 9.16252 147.357 8.93774C147.582 8.71295 147.876 8.54004 148.187 8.419C148.498 8.29797 148.844 8.24609 149.242 8.24609C149.398 8.24609 149.519 8.24609 149.692 8.26338C149.848 8.28068 149.986 8.33255 150.142 8.38442C150.297 8.4363 150.419 8.50546 150.557 8.60921C150.713 8.71295 150.799 8.79941 150.92 8.95503L150.09 9.75042Z" fill="white"/>
<path d="M151.422 8.50781H152.494V13.3666H151.422V8.50781Z" fill="white"/>
<path d="M153.048 10.9277C153.048 10.53 153.117 10.1841 153.238 9.8729C153.359 9.56166 153.549 9.285 153.774 9.06022C154.017 8.83544 154.293 8.66253 154.605 8.54149C154.916 8.42045 155.262 8.36858 155.66 8.36858C156.058 8.36858 156.404 8.42045 156.715 8.54149C157.026 8.66253 157.303 8.83544 157.545 9.06022C157.787 9.285 157.96 9.54437 158.081 9.8729C158.202 10.1841 158.272 10.53 158.272 10.9277C158.272 11.3253 158.202 11.6712 158.081 11.9824C157.96 12.2937 157.77 12.5703 157.545 12.7951C157.303 13.0199 157.026 13.1928 156.715 13.3138C156.404 13.4349 156.058 13.4867 155.66 13.4867C155.262 13.4867 154.916 13.4349 154.605 13.3138C154.293 13.1928 154.017 13.0199 153.774 12.7951C153.532 12.5703 153.359 12.3109 153.238 11.9824C153.117 11.6712 153.048 11.3253 153.048 10.9277ZM154.155 10.9277C154.155 11.1524 154.172 11.3772 154.259 11.5674C154.328 11.7576 154.432 11.9305 154.553 12.0516C154.674 12.1726 154.847 12.2936 155.037 12.3628C155.227 12.432 155.435 12.4839 155.642 12.4839C155.85 12.4839 156.092 12.432 156.248 12.3628C156.404 12.2936 156.594 12.1726 156.732 12.0516C156.853 11.896 156.974 11.7576 157.026 11.5674C157.095 11.3772 157.13 11.1697 157.13 10.9277C157.13 10.6856 157.113 10.4781 157.026 10.3225C156.957 10.1323 156.853 9.95936 156.732 9.83832C156.611 9.6827 156.438 9.59624 156.248 9.52708C156.058 9.45791 155.85 9.40604 155.642 9.40604C155.435 9.40604 155.193 9.45791 155.037 9.52708C154.881 9.59624 154.691 9.71728 154.553 9.83832C154.414 9.95936 154.311 10.1323 154.259 10.3225C154.207 10.5127 154.155 10.7029 154.155 10.9277ZM155.677 7.1582H157.078L155.885 8.14379H154.985L155.677 7.1582Z" fill="white"/>
<path d="M158.825 8.50781H160.278L162.337 11.8969V8.50781H163.409V13.3666H162.008L159.898 9.90839V13.3666H158.825V8.50781Z" fill="white"/>
<path d="M124.369 16.375H126.254C127.309 16.375 128.191 16.7208 128.191 17.9139C128.191 19.107 127.378 19.4874 126.306 19.4874H125.476V21.4759H124.369V16.375ZM125.493 18.5191H126.254C126.652 18.5191 127.032 18.3635 127.032 17.9139C127.032 17.3779 126.496 17.3087 126.081 17.3087H125.493V18.5191Z" fill="white"/>
<path d="M130.025 16.375H130.959L133.19 21.4759H131.91L131.461 20.4038H129.472L129.022 21.4759H127.776L130.025 16.375ZM130.475 17.8447L129.869 19.4355H131.115L130.475 17.8447Z" fill="white"/>
<path d="M133.519 16.375H135.041L137.221 19.9197H137.238V16.375H138.362V21.4759H136.892L134.661 17.8447H134.643V21.4759H133.519V16.375Z" fill="white"/>
<path d="M141.043 16.375H141.977L144.209 21.4759H142.929L142.479 20.4038H140.49L140.075 21.4759H138.829L141.043 16.375ZM141.476 17.8447L140.87 19.4355H142.116L141.476 17.8447Z" fill="white"/>
<path d="M144.659 16.375H146.354L147.53 19.7122H147.547L148.724 16.375H150.419V21.4759H149.294V17.5508H149.277L147.928 21.4759H147.063L145.766 17.5508H145.748V21.4759H144.624L144.659 16.375Z" fill="white"/>
<path d="M154.051 16.375H153.117L150.903 21.4759H152.148L152.563 20.4038H154.553L155.002 21.4759H156.282L154.051 16.375ZM152.927 19.4355L153.532 17.8447L154.137 19.4355H152.927Z" fill="white"/>
<path d="M153.826 15.1465H155.227L154.034 16.1494H153.117L153.826 15.1465Z" fill="white"/>
<path d="M43.2785 3.0957H34.9238V8.66343H43.2785V3.0957Z" fill="white"/>
<path d="M43.2783 3.0957H39.0923V5.87956H43.2783V3.0957Z" fill="#D53131"/>
<path d="M39.1098 5.87891H34.9238V8.66277H39.1098V5.87891Z" fill="#005BA6"/>
<path d="M37.0169 3.78711L36.8612 4.27126H36.3423L36.7574 4.56521L36.6017 5.04936L36.9996 4.75541L37.4147 5.04936L37.259 4.56521L37.6742 4.27126H37.1726L37.0169 3.78711Z" fill="#005BA6"/>
<path d="M41.1856 6.57031L41.0299 7.05446H40.5283L40.9435 7.34841L40.7878 7.83256L41.1856 7.53861L41.6008 7.83256L41.4451 7.34841L41.8602 7.05446H41.3413L41.1856 6.57031Z" fill="#D53131"/>
<path d="M2.99266 12.9159V13.3309H3.58077V13.5384C3.47698 13.6594 3.3559 13.7632 3.23482 13.8323C3.09644 13.9015 2.95806 13.9534 2.80238 13.9534C2.6813 13.9534 2.56022 13.9361 2.45644 13.8842C2.35265 13.8323 2.26616 13.7632 2.17968 13.6767C2.09319 13.5903 2.0413 13.4865 2.0067 13.3655C1.97211 13.2444 1.93751 13.1234 1.93751 12.9851C1.93751 12.8467 1.95481 12.7257 1.98941 12.6047C2.024 12.4836 2.09319 12.3799 2.16238 12.2934C2.23157 12.207 2.31806 12.1378 2.42184 12.0859C2.52563 12.0341 2.62941 11.9995 2.76779 11.9995C2.92347 11.9995 3.06185 12.0341 3.20022 12.1205C3.3386 12.1897 3.44239 12.3107 3.51158 12.4491L3.94401 12.1378C3.84023 11.9476 3.70185 11.792 3.49428 11.671C3.30401 11.5499 3.06185 11.498 2.78509 11.498C2.57752 11.498 2.38725 11.5326 2.21427 11.6191C2.0413 11.6882 1.88562 11.8093 1.76454 11.9303C1.64346 12.0687 1.53967 12.2243 1.47048 12.3972C1.40129 12.5701 1.3667 12.7603 1.3667 12.9678C1.3667 13.1753 1.40129 13.3828 1.47048 13.5557C1.53967 13.7286 1.64346 13.9015 1.76454 14.0398C1.88562 14.1782 2.0413 14.2819 2.21427 14.3511C2.38725 14.4202 2.56022 14.4721 2.75049 14.4721C3.06185 14.4721 3.3386 14.3511 3.56347 14.109V14.4375H4.0305V12.9332H2.99266V12.9159Z" fill="white"/>
<path d="M7.74965 14.4372C7.54208 14.4372 7.33451 14.4027 7.16154 14.3162C6.98856 14.2297 6.83289 14.126 6.71181 13.9877C6.59072 13.8493 6.48694 13.6937 6.41775 13.5035C6.34856 13.3306 6.31396 13.1404 6.31396 12.9502C6.31396 12.76 6.34856 12.5698 6.41775 12.3969C6.48694 12.224 6.59072 12.0684 6.71181 11.93C6.83289 11.7917 6.98856 11.688 7.16154 11.6015C7.33451 11.5151 7.52478 11.4805 7.73235 11.4805C7.93992 11.4805 8.13019 11.5151 8.30317 11.6015C8.47614 11.688 8.63182 11.809 8.7529 11.9473C8.87398 12.0857 8.97777 12.2413 9.04696 12.4315C9.11615 12.6044 9.15074 12.7946 9.15074 12.9675C9.15074 13.1577 9.11615 13.3479 9.04696 13.5208C8.97777 13.6937 8.87398 13.8493 8.7529 13.9877C8.63182 14.126 8.47614 14.2297 8.30317 14.3162C8.14749 14.4027 7.95722 14.4372 7.74965 14.4372ZM6.90208 12.9502C6.90208 13.0712 6.91937 13.1923 6.95397 13.3133C6.98856 13.4344 7.04046 13.5381 7.12694 13.6246C7.19613 13.711 7.28262 13.7975 7.3864 13.8493C7.49019 13.9012 7.61127 13.9358 7.74965 13.9358C7.88803 13.9358 8.00911 13.9012 8.1129 13.8493C8.21668 13.7975 8.30317 13.711 8.37236 13.6246C8.44155 13.5381 8.49344 13.4171 8.52803 13.3133C8.56263 13.1923 8.57993 13.0712 8.57993 12.9675C8.57993 12.8465 8.56263 12.7254 8.52803 12.6044C8.49344 12.4834 8.42425 12.3796 8.35506 12.2931C8.28587 12.2067 8.19938 12.1202 8.0956 12.0684C7.99181 12.0165 7.87073 11.9819 7.73235 11.9819C7.59397 11.9819 7.47289 12.0165 7.36911 12.0684C7.26532 12.1202 7.17884 12.2067 7.10965 12.2931C7.04046 12.3796 6.98856 12.4834 6.95397 12.6044C6.91937 12.7081 6.90208 12.8292 6.90208 12.9502Z" fill="white"/>
<path d="M13.9594 13.6591C13.9594 13.8321 13.9248 13.9704 13.8383 14.0741C13.7518 14.1779 13.6307 14.2643 13.4924 14.3335C13.354 14.3854 13.1983 14.42 13.0253 14.42H11.6069V11.4805H13.181C13.3194 11.4805 13.4405 11.5151 13.5442 11.5842C13.648 11.6534 13.7172 11.7571 13.7691 11.8609C13.821 11.9819 13.8556 12.0857 13.8556 12.224C13.8556 12.3623 13.821 12.5006 13.7518 12.6217C13.6826 12.7427 13.5788 12.8465 13.4405 12.8983C13.6134 12.9502 13.7345 13.0367 13.8383 13.1577C13.9075 13.3133 13.9594 13.4689 13.9594 13.6591ZM12.1777 11.9819V12.7254H12.9388C13.008 12.7254 13.0599 12.7081 13.1118 12.6736C13.1637 12.639 13.1983 12.6044 13.2329 12.5525C13.2675 12.5006 13.2848 12.4315 13.2848 12.3623C13.2848 12.2931 13.2675 12.224 13.2329 12.1721C13.1983 12.1202 13.1637 12.0684 13.1118 12.0511C13.0599 12.0165 13.008 11.9992 12.9561 11.9992H12.1777V11.9819ZM13.3886 13.5554C13.3886 13.4862 13.3713 13.4171 13.3367 13.3479C13.3021 13.296 13.2675 13.2442 13.2156 13.2096C13.1637 13.175 13.1118 13.1577 13.0426 13.1577H12.1605V13.9358H13.008C13.0772 13.9358 13.1464 13.9185 13.1983 13.8839C13.2502 13.8493 13.3021 13.7975 13.3367 13.7456C13.3713 13.6764 13.3886 13.6246 13.3886 13.5554Z" fill="white"/>
<path d="M16.3809 14.42V11.4805H16.9517V14.4027H16.3809V14.42Z" fill="white"/>
<path d="M21.5702 13.9185V14.42H19.5464V11.4805H21.5356V11.9819H20.1172V12.6908H21.3453V13.1577H20.1172V13.9185H21.5702Z" fill="white"/>
<path d="M23.9917 14.42V11.4805H25.289C25.4274 11.4805 25.5485 11.5151 25.6695 11.5669C25.7906 11.6188 25.8771 11.688 25.9636 11.7917C26.0501 11.8782 26.1193 11.9819 26.1539 12.1029C26.2058 12.224 26.2231 12.345 26.2231 12.4488C26.2231 12.5698 26.2058 12.6908 26.1539 12.8119C26.1193 12.9329 26.0501 13.0194 25.9636 13.1058C25.8771 13.1923 25.7906 13.2614 25.6868 13.296L26.3614 14.4027H25.7387L25.1333 13.4171H24.5625V14.4027H23.9917V14.42ZM24.5625 12.9329H25.2717C25.3409 12.9329 25.4101 12.9156 25.462 12.8638C25.5139 12.8292 25.5658 12.76 25.6004 12.6908C25.635 12.6217 25.6523 12.5352 25.6523 12.4488C25.6523 12.3623 25.635 12.2759 25.6004 12.2067C25.5658 12.1375 25.5139 12.0857 25.462 12.0338C25.4101 11.9992 25.3409 11.9646 25.2717 11.9646H24.5798V12.9329H24.5625Z" fill="white"/>
<path d="M29.2847 12.5352V14.42H28.7139V11.4805H29.1636L30.6685 13.4171V11.4978H31.2393V14.42H30.7723L29.2847 12.5352Z" fill="white"/>
<path d="M35.0792 14.4372C34.8717 14.4372 34.6641 14.4027 34.4911 14.3162C34.3182 14.2297 34.1625 14.126 34.0414 13.9877C33.9203 13.8493 33.8165 13.6937 33.7473 13.5035C33.6782 13.3306 33.6436 13.1404 33.6436 12.9502C33.6436 12.76 33.6782 12.5698 33.7473 12.3969C33.8165 12.224 33.9203 12.0684 34.0414 11.93C34.1625 11.7917 34.3182 11.688 34.4911 11.6015C34.6641 11.5151 34.8544 11.4805 35.0619 11.4805C35.2695 11.4805 35.4598 11.5151 35.6328 11.6015C35.8057 11.688 35.9614 11.809 36.0825 11.9473C36.2036 12.0857 36.3074 12.2413 36.3765 12.4315C36.4457 12.6044 36.4803 12.7946 36.4803 12.9675C36.4803 13.1577 36.4457 13.3479 36.3765 13.5208C36.3074 13.6937 36.2036 13.8493 36.0825 13.9877C35.9614 14.126 35.8057 14.2297 35.6328 14.3162C35.4771 14.4027 35.2868 14.4372 35.0792 14.4372ZM34.2317 12.9502C34.2317 13.0712 34.249 13.1923 34.2836 13.3133C34.3182 13.4344 34.37 13.5381 34.4565 13.6246C34.5257 13.711 34.6122 13.7975 34.716 13.8493C34.8198 13.9012 34.9409 13.9358 35.0792 13.9358C35.2176 13.9358 35.3387 13.9012 35.4425 13.8493C35.5463 13.7975 35.6328 13.711 35.7019 13.6246C35.7711 13.5381 35.823 13.4171 35.8576 13.3133C35.8922 13.1923 35.9095 13.0712 35.9095 12.9675C35.9095 12.8465 35.8922 12.7254 35.8576 12.6044C35.823 12.4834 35.7538 12.3796 35.6846 12.2931C35.6155 12.2067 35.529 12.1202 35.4252 12.0684C35.3214 12.0165 35.2003 11.9819 35.0619 11.9819C34.9236 11.9819 34.8025 12.0165 34.6987 12.0684C34.5949 12.1202 34.5084 12.2067 34.4392 12.2931C34.37 12.3796 34.3182 12.4834 34.2836 12.6044C34.249 12.7081 34.2317 12.8292 34.2317 12.9502Z" fill="white"/>
<path d="M42.6558 12.5352V14.42H42.085V11.4805H42.5347L44.0396 13.4171V11.4978H44.6104V14.42H44.1434L42.6558 12.5352Z" fill="white"/>
<path d="M48.0004 11.4805H48.5712L49.6436 14.4027H49.0555L48.8134 13.6764H47.7409L47.4988 14.4027H46.9106L48.0004 11.4805ZM48.6923 13.2787L48.2944 12.0684L47.8966 13.2787H48.6923Z" fill="white"/>
<path d="M51.6675 12.9329C51.6675 12.76 51.7021 12.5871 51.7713 12.4142C51.8405 12.2413 51.9269 12.0857 52.048 11.9473C52.1691 11.809 52.3248 11.688 52.4978 11.6015C52.6707 11.5151 52.8783 11.4805 53.1032 11.4805C53.3799 11.4805 53.6048 11.5323 53.7951 11.6534C53.9853 11.7744 54.141 11.93 54.2275 12.1202L53.7951 12.4142C53.7432 12.3104 53.674 12.224 53.6048 12.1548C53.5183 12.0857 53.4318 12.0511 53.3453 12.0165C53.2588 11.9819 53.1724 11.9819 53.0859 11.9819C52.9475 11.9819 52.8264 12.0165 52.7053 12.0684C52.6015 12.1202 52.5151 12.2067 52.4459 12.2931C52.3767 12.3796 52.3248 12.4834 52.2902 12.6044C52.2556 12.7254 52.2383 12.8292 52.2383 12.9502C52.2383 13.0712 52.2556 13.2096 52.3075 13.3306C52.3421 13.4516 52.4113 13.5554 52.4805 13.6419C52.5496 13.7283 52.6534 13.8148 52.7572 13.8666C52.861 13.9185 52.9821 13.9531 53.1032 13.9531C53.1897 13.9531 53.2934 13.9358 53.3799 13.9012C53.4664 13.8666 53.5529 13.8148 53.6394 13.7629C53.7259 13.6937 53.7778 13.6073 53.8297 13.5035L54.2967 13.7629C54.2448 13.9012 54.141 14.0395 54.0199 14.126C53.8815 14.2297 53.7432 14.2989 53.5875 14.3508C53.4318 14.4027 53.2588 14.4372 53.1032 14.4372C52.8956 14.4372 52.7053 14.3854 52.5324 14.2989C52.3594 14.2125 52.2037 14.0914 52.0826 13.9531C51.9615 13.8148 51.8577 13.6419 51.7886 13.4689C51.7021 13.296 51.6675 13.1058 51.6675 12.9329Z" fill="white"/>
<path d="M56.6494 14.42V11.4805H57.2202V14.4027H56.6494V14.42Z" fill="white"/>
<path d="M61.0426 14.4372C60.835 14.4372 60.6275 14.4027 60.4545 14.3162C60.2815 14.2297 60.1259 14.126 60.0048 13.9877C59.8837 13.8493 59.7799 13.6937 59.7107 13.5035C59.6415 13.3306 59.6069 13.1404 59.6069 12.9502C59.6069 12.76 59.6415 12.5698 59.7107 12.3969C59.7799 12.224 59.8837 12.0684 60.0048 11.93C60.1259 11.7917 60.2815 11.688 60.4545 11.6015C60.6275 11.5151 60.8177 11.4805 61.0253 11.4805C61.2329 11.4805 61.4232 11.5151 61.5961 11.6015C61.7691 11.688 61.9248 11.809 62.0459 11.9473C62.167 12.0857 62.2707 12.2413 62.3399 12.4315C62.4091 12.6044 62.4437 12.7946 62.4437 12.9675C62.4437 13.1577 62.4091 13.3479 62.3399 13.5208C62.2707 13.6937 62.167 13.8493 62.0459 13.9877C61.9248 14.126 61.7691 14.2297 61.5961 14.3162C61.4405 14.4027 61.2502 14.4372 61.0426 14.4372ZM60.195 12.9502C60.195 13.0712 60.2123 13.1923 60.2469 13.3133C60.2815 13.4344 60.3334 13.5381 60.4199 13.6246C60.4891 13.711 60.5756 13.7975 60.6794 13.8493C60.7832 13.9012 60.9042 13.9358 61.0426 13.9358C61.181 13.9358 61.3021 13.9012 61.4059 13.8493C61.5096 13.7975 61.5961 13.711 61.6653 13.6246C61.7345 13.5381 61.7864 13.4171 61.821 13.3133C61.8556 13.1923 61.8729 13.0712 61.8729 12.9675C61.8729 12.8465 61.8556 12.7254 61.821 12.6044C61.7864 12.4834 61.7172 12.3796 61.648 12.2931C61.5788 12.2067 61.4923 12.1202 61.3886 12.0684C61.2848 12.0165 61.1637 11.9819 61.0253 11.9819C60.8869 11.9819 60.7659 12.0165 60.6621 12.0684C60.5583 12.1202 60.4718 12.2067 60.4026 12.2931C60.3334 12.3796 60.2815 12.4834 60.2469 12.6044C60.2123 12.7081 60.195 12.8292 60.195 12.9502Z" fill="white"/>
<path d="M65.4707 12.5352V14.42H64.8999V11.4805H65.3496L66.8545 13.4171V11.4978H67.4253V14.42H66.9583L65.4707 12.5352Z" fill="white"/>
<path d="M70.8158 11.4805H71.3866L72.4591 14.4027H71.871L71.6288 13.6764H70.5563L70.3142 14.4027H69.7261L70.8158 11.4805ZM71.5077 13.2787L71.1099 12.0684L70.712 13.2787H71.5077Z" fill="white"/>
<path d="M74.7598 14.42V11.4805H75.3306V13.9012H76.8182V14.4027H74.7598V14.42Z" fill="white"/>
<path d="M6.97119 20.04C6.97119 19.6942 7.04038 19.3657 7.16146 19.0371C7.28255 18.7086 7.45552 18.4146 7.69768 18.1553C7.93985 17.8786 8.21661 17.6711 8.56255 17.5155C8.9085 17.3599 9.28904 17.2734 9.72148 17.2734C10.2404 17.2734 10.6728 17.3772 11.0534 17.602C11.4339 17.8268 11.7107 18.1207 11.8837 18.4838L11.0534 19.0544C10.9669 18.8469 10.8458 18.674 10.6901 18.553C10.5345 18.4319 10.3788 18.3455 10.2058 18.2936C10.0328 18.2417 9.85986 18.2244 9.70418 18.2244C9.42742 18.2244 9.20256 18.2763 8.99499 18.3801C8.78742 18.4838 8.63174 18.6394 8.49336 18.8123C8.35498 18.9853 8.2512 19.1927 8.19931 19.4002C8.13012 19.625 8.09552 19.8325 8.09552 20.0573C8.09552 20.2994 8.13012 20.5414 8.21661 20.7662C8.30309 20.991 8.40688 21.1985 8.54526 21.3714C8.68364 21.5443 8.85661 21.6827 9.06418 21.7864C9.27175 21.8902 9.47932 21.942 9.72148 21.942C9.89445 21.942 10.0674 21.9074 10.2404 21.8556C10.4134 21.8037 10.5864 21.7 10.7247 21.5789C10.8804 21.4579 11.0015 21.285 11.0707 21.0948L11.9355 21.6135C11.8318 21.8902 11.6415 22.1322 11.3993 22.3224C11.1572 22.5126 10.8804 22.6683 10.5691 22.7547C10.2577 22.8585 9.96364 22.9103 9.65229 22.9103C9.25445 22.9103 8.8912 22.8239 8.56255 22.6683C8.2339 22.5126 7.95714 22.2878 7.71498 22.0112C7.47282 21.7345 7.29984 21.4233 7.16146 21.0948C7.02308 20.7317 6.97119 20.3858 6.97119 20.04Z" fill="white"/>
<path d="M14.9626 22.893C14.5647 22.893 14.1842 22.8066 13.8555 22.651C13.5269 22.4953 13.2328 22.2878 13.0079 22.0112C12.7658 21.7345 12.5928 21.4406 12.4544 21.1121C12.3161 20.7835 12.2642 20.4377 12.2642 20.0746C12.2642 19.7115 12.3333 19.3484 12.4717 19.0198C12.6101 18.6913 12.8004 18.3801 13.0425 18.1207C13.2847 17.8613 13.5788 17.6538 13.9074 17.4982C14.2361 17.3426 14.5993 17.2734 14.9972 17.2734C15.395 17.2734 15.7582 17.3599 16.0869 17.5155C16.4155 17.6711 16.6923 17.8959 16.9345 18.1553C17.1766 18.4319 17.3496 18.7259 17.488 19.0544C17.6264 19.3829 17.6782 19.7288 17.6782 20.0919C17.6782 20.455 17.6091 20.8008 17.4707 21.1466C17.3323 21.4752 17.142 21.7864 16.8999 22.0458C16.6577 22.3051 16.3636 22.5126 16.035 22.6683C15.7063 22.8239 15.3431 22.893 14.9626 22.893ZM13.3539 20.0919C13.3539 20.334 13.3885 20.5587 13.4577 20.7835C13.5269 21.0083 13.6307 21.1985 13.769 21.3887C13.9074 21.5616 14.0804 21.6999 14.2707 21.8037C14.4782 21.9074 14.7031 21.9593 14.9626 21.9593C15.222 21.9593 15.4469 21.9074 15.6545 21.8037C15.862 21.6999 16.035 21.5616 16.1561 21.3714C16.2945 21.1985 16.3982 20.991 16.4674 20.7662C16.5366 20.5414 16.5712 20.3167 16.5712 20.0919C16.5712 19.8498 16.5366 19.625 16.4501 19.4002C16.3809 19.1755 16.2599 18.9853 16.1215 18.8123C15.9831 18.6394 15.8101 18.5011 15.6199 18.3974C15.4123 18.2936 15.1874 18.2417 14.9453 18.2417C14.6858 18.2417 14.4436 18.2936 14.2534 18.3974C14.0458 18.5011 13.8901 18.6394 13.7517 18.8296C13.6134 19.0025 13.5096 19.21 13.4404 19.4175C13.3712 19.625 13.3539 19.8498 13.3539 20.0919Z" fill="white"/>
<path d="M19.5812 19.2971V22.859H18.5088V17.3086H19.3737L22.245 20.957V17.3086H23.3175V22.8417H22.418L19.5812 19.2971Z" fill="white"/>
<path d="M26.3271 22.859V17.3086H28.6796C28.9391 17.3086 29.1639 17.3605 29.3888 17.4642C29.5964 17.568 29.7866 17.7063 29.9423 17.8792C30.098 18.0521 30.2191 18.2596 30.3056 18.4671C30.392 18.6919 30.4439 18.9167 30.4439 19.1414C30.4439 19.4527 30.3747 19.7466 30.2191 20.0233C30.0807 20.2999 29.8731 20.542 29.6137 20.7149C29.3542 20.8878 29.0601 20.9743 28.7142 20.9743H27.3996V22.8417H26.3271V22.859ZM27.4169 20.0579H28.6623C28.8007 20.0579 28.9045 20.0233 29.0082 19.9541C29.112 19.885 29.1985 19.7812 29.2504 19.6429C29.3196 19.5046 29.3369 19.3489 29.3369 19.176C29.3369 18.9858 29.3023 18.8129 29.2331 18.6919C29.1639 18.5536 29.0774 18.4498 28.9564 18.3806C28.8526 18.3115 28.7315 18.2769 28.5931 18.2769H27.3823V20.0579H27.4169Z" fill="white"/>
<path d="M32.3121 17.3086H33.4018L35.4429 22.859H34.3359L33.8689 21.4757H31.8278L31.3607 22.859H30.271L32.3121 17.3086ZM33.6267 20.7149L32.8656 18.4325L32.1045 20.7149H33.6267Z" fill="white"/>
<path d="M39.2827 18.7613C39.2481 18.7267 39.1789 18.6749 39.0751 18.6057C38.9713 18.5365 38.8676 18.4847 38.7292 18.4328C38.5908 18.3809 38.4351 18.3291 38.2795 18.2772C38.1238 18.2253 37.9508 18.208 37.7951 18.208C37.5011 18.208 37.2762 18.2599 37.1378 18.3636C36.9821 18.4674 36.913 18.623 36.913 18.8305C36.913 18.9861 36.9648 19.1072 37.0513 19.1936C37.1378 19.2801 37.2935 19.3492 37.4665 19.4184C37.6394 19.4876 37.8816 19.5394 38.1757 19.6259C38.5389 19.7123 38.8503 19.8161 39.127 19.9544C39.4038 20.0755 39.5941 20.2484 39.7497 20.4559C39.8881 20.6633 39.9573 20.9227 39.9573 21.2685C39.9573 21.5625 39.9054 21.8218 39.8016 22.0293C39.6978 22.2368 39.5422 22.4097 39.3519 22.5308C39.1616 22.6518 38.9368 22.7556 38.6946 22.8074C38.4524 22.8593 38.193 22.8939 37.9162 22.8939C37.6394 22.8939 37.3627 22.8593 37.0859 22.8074C36.8092 22.7556 36.5497 22.6691 36.2902 22.5654C36.0308 22.4616 35.8059 22.3233 35.5811 22.185L36.0654 21.2512C36.1173 21.3031 36.2038 21.355 36.3075 21.4414C36.4286 21.5106 36.567 21.5971 36.74 21.6662C36.913 21.7354 37.1032 21.8046 37.3108 21.8564C37.5184 21.9083 37.7259 21.9429 37.9335 21.9429C38.2276 21.9429 38.4524 21.891 38.5908 21.8046C38.7465 21.7008 38.8157 21.5625 38.8157 21.3896C38.8157 21.2167 38.7638 21.0956 38.6427 21.0092C38.5216 20.9227 38.3486 20.8363 38.1411 20.7671C37.9335 20.6979 37.674 20.6288 37.38 20.5423C37.034 20.4386 36.74 20.3348 36.4978 20.2138C36.2557 20.0927 36.0827 19.9371 35.9789 19.7469C35.8578 19.5567 35.8059 19.3319 35.8059 19.0553C35.8059 18.6749 35.8924 18.3636 36.0827 18.1043C36.2557 17.8449 36.4978 17.6547 36.8092 17.5164C37.1205 17.378 37.4492 17.3262 37.8297 17.3262C38.0892 17.3262 38.3313 17.3608 38.5735 17.4126C38.7984 17.4645 39.0232 17.551 39.2308 17.6374C39.4384 17.7239 39.6114 17.8276 39.7843 17.9487L39.2827 18.7613Z" fill="white"/>
<path d="M43.1403 22.893C42.7424 22.893 42.3619 22.8066 42.0333 22.651C41.7046 22.4953 41.4105 22.2878 41.1857 22.0112C40.9435 21.7345 40.7705 21.4406 40.6322 21.1121C40.4938 20.7835 40.4419 20.4377 40.4419 20.0746C40.4419 19.7115 40.5111 19.3484 40.6495 19.0198C40.7878 18.6913 40.9781 18.3801 41.2203 18.1207C41.4624 17.8613 41.7565 17.6538 42.0851 17.4982C42.4138 17.3426 42.777 17.2734 43.1749 17.2734C43.5727 17.2734 43.936 17.3599 44.2646 17.5155C44.5933 17.6711 44.87 17.8959 45.1122 18.1553C45.3544 18.4319 45.5273 18.7259 45.6657 19.0544C45.8041 19.3829 45.856 19.7288 45.856 20.0919C45.856 20.455 45.7868 20.8008 45.6484 21.1466C45.51 21.4752 45.3198 21.7864 45.0776 22.0458C44.8354 22.3051 44.5414 22.5126 44.2127 22.6683C43.8841 22.8239 43.5381 22.893 43.1403 22.893ZM41.5316 20.0919C41.5316 20.334 41.5662 20.5587 41.6354 20.7835C41.7046 21.0083 41.8084 21.1985 41.9468 21.3887C42.0851 21.5616 42.2581 21.6999 42.4484 21.8037C42.656 21.9074 42.8808 21.9593 43.1403 21.9593C43.3997 21.9593 43.6246 21.9074 43.8322 21.8037C44.0398 21.6999 44.2127 21.5616 44.3338 21.3714C44.4722 21.1985 44.576 20.991 44.6452 20.7662C44.7144 20.5414 44.749 20.3167 44.749 20.0919C44.749 19.8498 44.7144 19.625 44.6279 19.4002C44.5587 19.1755 44.4376 18.9853 44.2992 18.8123C44.1608 18.6394 43.9879 18.5011 43.7976 18.3974C43.59 18.2936 43.3652 18.2417 43.123 18.2417C42.8635 18.2417 42.6214 18.2936 42.4311 18.3974C42.2235 18.5011 42.0678 18.6394 41.9295 18.8296C41.7911 19.0025 41.6873 19.21 41.6181 19.4175C41.5489 19.625 41.5316 19.8498 41.5316 20.0919Z" fill="white"/>
<path d="M48.5542 22.859V17.3086H52.2731V18.2596H49.6266V19.6948H51.8234V20.5766H49.6266V22.8763H48.5542V22.859Z" fill="white"/>
<path d="M53.0342 22.859V17.3086H54.1066V22.859H53.0342Z" fill="white"/>
<path d="M55.2656 22.859V17.3086H57.7219C57.9813 17.3086 58.2062 17.3605 58.431 17.4642C58.6386 17.568 58.8289 17.7063 59.0019 17.8792C59.1575 18.0521 59.2786 18.2596 59.3651 18.4671C59.4516 18.6919 59.4862 18.9167 59.4862 19.1414C59.4862 19.3835 59.4516 19.6083 59.3651 19.8158C59.2786 20.0406 59.1748 20.2135 59.0192 20.3864C58.8635 20.542 58.6905 20.6804 58.4829 20.7668L59.7457 22.859H58.5521L57.4105 20.9916H56.3381V22.859H55.2656ZM56.3554 20.0579H57.7046C57.8429 20.0579 57.964 20.0233 58.0678 19.9368C58.1716 19.8504 58.2581 19.7466 58.31 19.6083C58.3792 19.47 58.3965 19.3144 58.3965 19.1587C58.3965 18.9858 58.3619 18.8302 58.2927 18.6919C58.2235 18.5536 58.1197 18.4498 58.0159 18.3806C57.9121 18.2942 57.791 18.2596 57.6527 18.2596H56.3554V20.0579Z" fill="white"/>
<path d="M64.9868 22.859V19.2106L63.5684 21.9253H62.963L61.5446 19.2106V22.859H60.4722V17.3086H61.6311L63.2743 20.4556L64.9349 17.3086H66.0765V22.859H64.9868Z" fill="white"/>
<path d="M71.0756 21.908V22.859H67.2183V17.3086H71.0064V18.2596H68.308V19.591H70.6431V20.4729H68.308V21.9253H71.0756V21.908Z" fill="white"/>
<path d="M3.11374 18.4316L3.51158 19.6939H4.84348L3.77104 20.472L4.18618 21.7342L3.11374 20.9561L2.0413 21.7342L2.43914 20.472L1.3667 19.6939H2.6986L3.11374 18.4316Z" fill="#D53131"/>
<path d="M75.0881 18.4316L75.5033 19.6939H76.8352L75.7627 20.472L76.1606 21.7342L75.0881 20.9561L74.0157 21.7342L74.4308 20.472L73.3584 19.6939H74.673L75.0881 18.4316Z" fill="#D53131"/>
<path d="M87.1792 1.22852V29.0498" stroke="white" stroke-width="1.8838" stroke-miterlimit="10"/>
</svg>
